<?xml version="1.0" standalone="no"?>
<!DOCTYPE svg PUBLIC "-//W3C//DTD SVG 20010904//EN"
 "http://www.w3.org/TR/2001/REC-SVG-20010904/DTD/svg10.dtd">
<svg version="1.0" xmlns="http://www.w3.org/2000/svg"
 width="336.000000pt" height="374.000000pt" viewBox="0 0 336.000000 374.000000"
 preserveAspectRatio="xMidYMid meet">
<metadata>
Created by potrace 1.16, written by Peter Selinger 2001-2019
</metadata>
<g transform="translate(0.000000,374.000000) scale(0.100000,-0.100000)"
fill="#000000" stroke="none">
<path d="M1514 3729 c-70 -12 -209 -56 -269 -86 -214 -108 -388 -306 -470
-537 -95 -264 -84 -587 28 -829 106 -229 307 -415 540 -498 68 -25 87 -36 84
-48 -6 -20 -427 -1052 -436 -1068 -3 -6 -145 403 -316 909 -171 506 -318 933
-327 949 -37 60 -133 93 -209 70 -45 -14 -103 -61 -125 -102 -34 -68 -34 -69
371 -1254 212 -620 392 -1139 400 -1155 23 -44 71 -73 131 -78 71 -6 97 2 142
43 34 30 68 104 327 715 159 374 292 677 295 673 4 -5 134 -307 290 -673 156
-366 292 -677 302 -693 60 -85 238 -88 292 -4 29 45 796 2307 796 2348 0 109
-103 199 -214 187 -54 -6 -114 -35 -132 -64 -9 -12 -157 -443 -329 -956 -173
-513 -314 -930 -314 -927 -1 4 -98 251 -216 549 -118 298 -215 543 -215 545 0
3 19 9 43 16 63 16 196 81 268 129 287 194 449 566 410 945 -46 459 -340 798
-766 886 -96 20 -286 24 -381 8z m292 -334 c217 -45 374 -185 455 -406 113
-309 10 -667 -239 -833 -104 -69 -202 -98 -329 -97 -57 1 -125 6 -151 12 -160
35 -315 165 -395 329 -62 126 -82 228 -74 370 8 127 24 189 77 297 125 252
387 383 656 328z"/>
</g>
</svg>
